<svg width="170" height="35" viewBox="0 0 170 35" fill="none" xmlns="http://www.w3.org/2000/svg">
<path d="M14.9277 1.80957H19.6104L12.125 16.7461V27H7.95508V18.5918L14.9277 1.80957ZM5.52832 1.80957L9.32227 11.6191L7.47656 16.0967L0.845703 1.80957H5.52832ZM33.043 7.62012C34.2962 7.68848 35.4355 7.99609 36.4609 8.54297C37.4863 9.06706 38.3408 9.77344 39.0244 10.6621C39.7308 11.528 40.2777 12.542 40.665 13.7041C41.0524 14.8662 41.2461 16.1081 41.2461 17.4297C41.2461 18.7513 41.041 19.9932 40.6309 21.1553C40.2435 22.2946 39.6966 23.2972 38.9902 24.1631C38.2839 25.0062 37.418 25.6898 36.3926 26.2139C35.3672 26.738 34.2507 27.0456 33.043 27.1367V23.8555C34.1823 23.6048 35.1051 22.887 35.8115 21.7021C36.5407 20.5173 36.9053 19.0931 36.9053 17.4297C36.9053 16.5866 36.8141 15.8005 36.6318 15.0713C36.4723 14.3193 36.2217 13.6471 35.8799 13.0547C35.5381 12.4622 35.1279 11.9723 34.6494 11.585C34.1709 11.1976 33.6354 10.9469 33.043 10.833V7.62012ZM23.5068 17.3613C23.5068 16.0397 23.7005 14.8092 24.0879 13.6699C24.4753 12.5306 25.0221 11.5394 25.7285 10.6963C26.4577 9.8304 27.3236 9.13542 28.3262 8.61133C29.3288 8.08724 30.4339 7.76823 31.6416 7.6543V10.833C30.5023 11.0837 29.5908 11.8014 28.9072 12.9863C28.2236 14.1712 27.8818 15.5954 27.8818 17.2588C27.8818 18.1019 27.9616 18.8994 28.1211 19.6514C28.3034 20.4033 28.554 21.0755 28.873 21.668C29.1921 22.2604 29.5794 22.7503 30.0352 23.1377C30.5137 23.5251 31.0492 23.7643 31.6416 23.8555V27.1367C30.3883 27.0456 29.2604 26.738 28.2578 26.2139C27.2552 25.667 26.4007 24.9606 25.6943 24.0947C24.988 23.2288 24.4411 22.2148 24.0537 21.0527C23.6891 19.8906 23.5068 18.6602 23.5068 17.3613ZM50.6455 18.2158C50.6455 19.0133 50.6797 19.7653 50.748 20.4717C50.8164 21.1553 50.9645 21.7591 51.1924 22.2832C51.4202 22.8073 51.762 23.2288 52.2178 23.5479C52.6735 23.8669 53.2773 24.0264 54.0293 24.0264C54.3255 24.0264 54.7471 23.9808 55.2939 23.8896C55.8408 23.7985 56.3649 23.6504 56.8662 23.4453V25.9746C56.2738 26.2936 55.6243 26.5785 54.918 26.8291C54.2344 27.057 53.5508 27.1709 52.8672 27.1709C52.3203 27.1709 51.8304 27.1139 51.3975 27C50.9645 26.9089 50.5544 26.7607 50.167 26.5557C49.8024 26.3278 49.4492 26.0771 49.1074 25.8037C48.7656 25.5303 48.4238 25.2227 48.082 24.8809C47.6947 24.4935 47.387 24.0492 47.1592 23.5479C46.9313 23.0238 46.7604 22.4883 46.6465 21.9414C46.5553 21.3717 46.4984 20.8021 46.4756 20.2324C46.4756 19.6628 46.4756 19.1045 46.4756 18.5576V7.72266H50.6455V18.2158ZM62.4375 7.72266V27H58.7119L58.2676 25.0176V7.72266H62.4375Z" fill="#A18A68"/>
<path d="M80.04 5.70605C79.9261 5.66048 79.7894 5.58073 79.6299 5.4668C79.4704 5.35286 79.2425 5.25033 78.9463 5.15918C78.6501 5.04525 78.2741 4.9541 77.8184 4.88574C77.3626 4.81738 76.7816 4.80599 76.0752 4.85156V1.39941C77.0778 1.4222 78.0918 1.53613 79.1172 1.74121C80.1654 1.9235 81.0085 2.21973 81.6465 2.62988C81.5098 2.92611 81.3503 3.25651 81.168 3.62109C80.9857 3.96289 80.8148 4.29329 80.6553 4.6123C80.4958 4.90853 80.359 5.15918 80.2451 5.36426C80.1312 5.56934 80.0628 5.68327 80.04 5.70605ZM68.248 8.44043C68.248 7.43783 68.4189 6.53776 68.7607 5.74023C69.1025 4.94271 69.5583 4.24772 70.1279 3.65527C70.7204 3.04004 71.404 2.56152 72.1787 2.21973C72.9762 1.85514 73.8079 1.61589 74.6738 1.50195V5.09082C73.9447 5.34147 73.3408 5.78581 72.8623 6.42383C72.3838 7.03906 72.1445 7.66569 72.1445 8.30371C72.1445 9.19238 72.3838 9.91016 72.8623 10.457C73.3408 11.0039 73.9447 11.4824 74.6738 11.8926V15.7891C73.9219 15.4245 73.1699 15.0371 72.418 14.627C71.666 14.194 70.9824 13.6927 70.3672 13.123C69.752 12.5534 69.2393 11.8926 68.8291 11.1406C68.4417 10.3887 68.248 9.48861 68.248 8.44043ZM68.7949 22.3857C69.1139 22.568 69.5127 22.7503 69.9912 22.9326C70.4925 23.0921 71.0052 23.2516 71.5293 23.4111C72.0534 23.5479 72.5775 23.6618 73.1016 23.7529C73.6257 23.8441 74.1156 23.8896 74.5713 23.8896H74.6738V27.1367H74.6055C74.0586 27.1367 73.4889 27.1025 72.8965 27.0342C72.3268 26.9886 71.7458 26.8975 71.1533 26.7607C70.5609 26.624 69.9912 26.4417 69.4443 26.2139C68.9202 25.9632 68.4645 25.667 68.0771 25.3252L68.7949 22.3857ZM76.0752 12.5762C76.8271 12.918 77.5905 13.2826 78.3652 13.6699C79.1628 14.0573 79.8805 14.5358 80.5186 15.1055C81.1566 15.6523 81.6807 16.3245 82.0908 17.1221C82.501 17.9196 82.7061 18.9108 82.7061 20.0957C82.7061 20.916 82.5465 21.7135 82.2275 22.4883C81.9313 23.263 81.4984 23.9694 80.9287 24.6074C80.3818 25.2227 79.6982 25.7467 78.8779 26.1797C78.0576 26.6126 77.1234 26.8975 76.0752 27.0342V23.7529C77.9437 23.2972 78.8779 22.0553 78.8779 20.0273C78.8779 19.2298 78.6159 18.569 78.0918 18.0449C77.5677 17.5208 76.8955 17.0309 76.0752 16.5752V12.5762ZM86.7734 0.442383H90.9092V27H86.7734V0.442383ZM101.129 9.8418C101.516 10.2292 101.812 10.6849 102.018 11.209C102.245 11.7103 102.405 12.2458 102.496 12.8154C102.61 13.3623 102.678 13.9206 102.701 14.4902C102.724 15.0599 102.735 15.6182 102.735 16.165V26.3164V27H98.5654V16.5068C98.5654 15.7321 98.5312 14.9915 98.4629 14.2852C98.3945 13.5788 98.235 12.9521 97.9844 12.4053C97.7337 11.8584 97.3919 11.4368 96.959 11.1406C96.526 10.8216 95.9222 10.6621 95.1475 10.6621C94.8285 10.6621 94.3955 10.7191 93.8486 10.833C93.3245 10.9242 92.8118 11.0837 92.3105 11.3115V8.67969C92.9258 8.36068 93.5866 8.08724 94.293 7.85938C95.0221 7.63151 95.7285 7.51758 96.4121 7.51758C97.4375 7.51758 98.3034 7.73405 99.0098 8.16699C99.7161 8.57715 100.423 9.13542 101.129 9.8418ZM116.646 7.62012C117.9 7.68848 119.039 7.99609 120.064 8.54297C121.09 9.06706 121.944 9.77344 122.628 10.6621C123.334 11.528 123.881 12.542 124.269 13.7041C124.656 14.8662 124.85 16.1081 124.85 17.4297C124.85 18.7513 124.645 19.9932 124.234 21.1553C123.847 22.2946 123.3 23.2972 122.594 24.1631C121.887 25.0062 121.021 25.6898 119.996 26.2139C118.971 26.738 117.854 27.0456 116.646 27.1367V23.8555C117.786 23.6048 118.709 22.887 119.415 21.7021C120.144 20.5173 120.509 19.0931 120.509 17.4297C120.509 16.5866 120.418 15.8005 120.235 15.0713C120.076 14.3193 119.825 13.6471 119.483 13.0547C119.142 12.4622 118.731 11.9723 118.253 11.585C117.774 11.1976 117.239 10.9469 116.646 10.833V7.62012ZM107.11 17.3613C107.11 16.0397 107.304 14.8092 107.691 13.6699C108.079 12.5306 108.626 11.5394 109.332 10.6963C110.061 9.8304 110.927 9.13542 111.93 8.61133C112.932 8.08724 114.037 7.76823 115.245 7.6543V10.833C114.106 11.0837 113.194 11.8014 112.511 12.9863C111.827 14.1712 111.485 15.5954 111.485 17.2588C111.485 18.1019 111.565 18.8994 111.725 19.6514C111.907 20.4033 112.158 21.0755 112.477 21.668C112.796 22.2604 113.183 22.7503 113.639 23.1377C114.117 23.5251 114.653 23.7643 115.245 23.8555V27.1367C113.992 27.0456 112.864 26.738 111.861 26.2139C110.859 25.667 110.004 24.9606 109.298 24.0947C108.591 23.2288 108.045 22.2148 107.657 21.0527C107.293 19.8906 107.11 18.6602 107.11 17.3613ZM133.941 7.72266L134.386 9.6709V34.5879H130.216V7.72266H133.941ZM147.066 13.5674C147.34 14.6156 147.477 15.7891 147.477 17.0879C147.477 18.3867 147.317 19.6514 146.998 20.8818C146.702 22.0895 146.235 23.1605 145.597 24.0947C144.981 25.029 144.195 25.7809 143.238 26.3506C142.304 26.8975 141.199 27.1709 139.923 27.1709C139.125 27.1709 138.362 27.0798 137.633 26.8975C136.926 26.7152 136.311 26.4759 135.787 26.1797V22.625C136.539 23.5137 137.462 23.958 138.556 23.958C139.239 23.958 139.854 23.7871 140.401 23.4453C140.971 23.1035 141.45 22.6478 141.837 22.0781C142.247 21.4857 142.566 20.7907 142.794 19.9932C143.022 19.1729 143.136 18.307 143.136 17.3955C143.136 16.5068 143.033 15.6637 142.828 14.8662C142.623 14.0687 142.327 13.3623 141.939 12.7471C141.575 12.1318 141.119 11.6419 140.572 11.2773C140.048 10.9128 139.433 10.7305 138.727 10.7305C138.134 10.7305 137.587 10.8558 137.086 11.1064C136.607 11.3343 136.174 11.6647 135.787 12.0977V8.47461C136.311 8.17839 136.892 7.95052 137.53 7.79102C138.168 7.63151 138.829 7.55176 139.513 7.55176C140.265 7.55176 141.028 7.6543 141.803 7.85938C142.577 8.06445 143.295 8.40625 143.956 8.88477C144.64 9.36328 145.255 9.98991 145.802 10.7646C146.349 11.5394 146.77 12.4736 147.066 13.5674ZM161.046 7.55176C162.276 7.66569 163.382 7.99609 164.361 8.54297C165.364 9.08984 166.218 9.79622 166.925 10.6621C167.631 11.528 168.167 12.5192 168.531 13.6357C168.919 14.7523 169.112 15.9144 169.112 17.1221C169.112 17.6689 169.078 18.2158 169.01 18.7627H157.286V15.7549H165.182C165.182 15.1624 165.079 14.5928 164.874 14.0459C164.692 13.499 164.407 12.9977 164.02 12.542C163.655 12.0635 163.222 11.6647 162.721 11.3457C162.219 11.0267 161.661 10.833 161.046 10.7646V7.55176ZM160.909 23.7871C161.16 23.7871 161.467 23.7643 161.832 23.7188C162.219 23.6504 162.618 23.5479 163.028 23.4111C163.461 23.2516 163.883 23.0579 164.293 22.8301C164.726 22.6022 165.102 22.3288 165.421 22.0098L166.925 24.2998C166.173 25.234 165.296 25.9404 164.293 26.4189C163.29 26.8975 162.014 27.1367 160.465 27.1367C159.212 27.1367 158.038 26.8861 156.944 26.3848C155.851 25.8607 154.916 25.1543 154.142 24.2656C153.367 23.377 152.752 22.3402 152.296 21.1553C151.84 19.9704 151.612 18.6943 151.612 17.3271C151.612 16.0283 151.817 14.7979 152.228 13.6357C152.66 12.4736 153.242 11.4596 153.971 10.5938C154.7 9.70508 155.543 8.9873 156.5 8.44043C157.48 7.89355 158.528 7.58594 159.645 7.51758V10.7988C158.801 10.9583 158.106 11.3001 157.56 11.8242C157.013 12.3483 156.58 12.9521 156.261 13.6357C155.965 14.2965 155.748 14.9801 155.611 15.6865C155.497 16.3929 155.44 16.9967 155.44 17.498C155.44 18.3867 155.543 19.2184 155.748 19.9932C155.976 20.7451 156.318 21.4059 156.773 21.9756C157.229 22.5225 157.787 22.9668 158.448 23.3086C159.132 23.6276 159.952 23.7871 160.909 23.7871Z" fill="#686AA1"/>
</svg>
