<svg width="39" height="27" viewBox="0 0 39 27" fill="none" xmlns="http://www.w3.org/2000/svg">
<path d="M14.9277 0.80957H19.6104L12.125 15.7461V26H7.95508V17.5918L14.9277 0.80957ZM5.52832 0.80957L9.32227 10.6191L7.47656 15.0967L0.845703 0.80957H5.52832Z" fill="#A18A68"/>
<path d="M36.1191 4.70605C36.0052 4.66048 35.8685 4.58073 35.709 4.4668C35.5495 4.35286 35.3216 4.25033 35.0254 4.15918C34.7292 4.04525 34.3532 3.9541 33.8975 3.88574C33.4417 3.81738 32.8607 3.80599 32.1543 3.85156V0.399414C33.1569 0.422201 34.1709 0.536133 35.1963 0.741211C36.2445 0.923503 37.0876 1.21973 37.7256 1.62988C37.5889 1.92611 37.4294 2.25651 37.2471 2.62109C37.0648 2.96289 36.8939 3.29329 36.7344 3.6123C36.5749 3.90853 36.4382 4.15918 36.3242 4.36426C36.2103 4.56934 36.1419 4.68327 36.1191 4.70605ZM24.3271 7.44043C24.3271 6.43783 24.498 5.53776 24.8398 4.74023C25.1816 3.94271 25.6374 3.24772 26.207 2.65527C26.7995 2.04004 27.4831 1.56152 28.2578 1.21973C29.0553 0.855143 29.887 0.615885 30.7529 0.501953V4.09082C30.0238 4.34147 29.4199 4.78581 28.9414 5.42383C28.4629 6.03906 28.2236 6.66569 28.2236 7.30371C28.2236 8.19238 28.4629 8.91016 28.9414 9.45703C29.4199 10.0039 30.0238 10.4824 30.7529 10.8926V14.7891C30.001 14.4245 29.249 14.0371 28.4971 13.627C27.7451 13.194 27.0615 12.6927 26.4463 12.123C25.8311 11.5534 25.3184 10.8926 24.9082 10.1406C24.5208 9.38867 24.3271 8.48861 24.3271 7.44043ZM24.874 21.3857C25.193 21.568 25.5918 21.7503 26.0703 21.9326C26.5716 22.0921 27.0843 22.2516 27.6084 22.4111C28.1325 22.5479 28.6566 22.6618 29.1807 22.7529C29.7048 22.8441 30.1947 22.8896 30.6504 22.8896H30.7529V26.1367H30.6846C30.1377 26.1367 29.568 26.1025 28.9756 26.0342C28.4059 25.9886 27.8249 25.8975 27.2324 25.7607C26.64 25.624 26.0703 25.4417 25.5234 25.2139C24.9993 24.9632 24.5436 24.667 24.1562 24.3252L24.874 21.3857ZM32.1543 11.5762C32.9062 11.918 33.6696 12.2826 34.4443 12.6699C35.2419 13.0573 35.9596 13.5358 36.5977 14.1055C37.2357 14.6523 37.7598 15.3245 38.1699 16.1221C38.5801 16.9196 38.7852 17.9108 38.7852 19.0957C38.7852 19.916 38.6257 20.7135 38.3066 21.4883C38.0104 22.263 37.5775 22.9694 37.0078 23.6074C36.4609 24.2227 35.7773 24.7467 34.957 25.1797C34.1367 25.6126 33.2025 25.8975 32.1543 26.0342V22.7529C34.0228 22.2972 34.957 21.0553 34.957 19.0273C34.957 18.2298 34.695 17.569 34.1709 17.0449C33.6468 16.5208 32.9746 16.0309 32.1543 15.5752V11.5762Z" fill="#686AA1"/>
</svg>
